<svg xmlns="http://www.w3.org/2000/svg" viewBox="0 0 156.04 190.91"><defs><style>.cls-1{fill:#fff;}</style></defs><g id="Слой_2" data-name="Слой 2"><g id="Слой_1-2" data-name="Слой 1"><path class="cls-1" d="M118.3,190.91h0a7,7,0,0,1-6-3.49L89,147.67a4,4,0,1,1,6.94-4l22.33,38.23,7.71-13.2a6.91,6.91,0,0,1,6-3.44l15.19-.08L124.72,127a4,4,0,1,1,6.92-4.07l23.44,39.76a7,7,0,0,1-6,10.49l-16.44.09-8.31,14.21A6.91,6.91,0,0,1,118.3,190.91Zm-.91-7.51Zm1.81,0h0Zm12.85-10.15h0Zm.92-.58,0,0Zm15.19-5.92Zm.89-1.62h0Z"/><path class="cls-1" d="M37.74,190.91a6.91,6.91,0,0,1-6-3.47l-8.3-14.2-16.47-.09a7,7,0,0,1-6-10.5l23.27-39.74a4,4,0,0,1,6.93,4L8.81,165.13l15.23.08a6.94,6.94,0,0,1,6,3.49l7.66,13.11,21.45-38.32a4,4,0,1,1,7,3.93l-22.38,40a7,7,0,0,1-6,3.53Zm.9-7.52h0ZM24,173.24h0Zm-.91-.54v0Zm-15.21-6h0ZM7,165.12H7Z"/><path class="cls-1" d="M9.3,51.75H16c0-.26,0-.53,0-.78-.19-3.49-.38-6.79.87-8.94s4.26-3.7,7.4-5.28c2.84-1.42,5.77-2.89,8-5.16s3.74-5.19,5.16-8c1.59-3.15,3.08-6.12,5.28-7.4s5.45-1.07,8.94-.87c3.19.17,6.49.36,9.63-.49s5.71-2.58,8.32-4.3c3-2,5.79-3.82,8.44-3.82s5.46,1.86,8.44,3.82c2.61,1.72,5.3,3.49,8.32,4.3s6.43.66,9.63.49c3.48-.19,6.78-.38,8.94.87s3.69,4.25,5.27,7.4c1.43,2.84,2.9,5.77,5.16,8s5.2,3.74,8,5.16c3.15,1.58,6.13,3.08,7.4,5.28s1.07,5.45.88,8.94c0,.25,0,.52,0,.78h6.69c0-.14,0-.28,0-.42.24-4.31.48-8.77-1.76-12.65s-6.48-6-10.19-7.9a25,25,0,0,1-6.3-3.91,25.11,25.11,0,0,1-3.91-6.31c-1.86-3.7-4-7.9-7.9-10.18s-8.34-2-12.66-1.76a25.82,25.82,0,0,1-7.53-.27,24.49,24.49,0,0,1-6.37-3.43C86.64,2.61,82.67,0,78,0S69.4,2.61,65.9,4.92a24.65,24.65,0,0,1-6.37,3.43A25.5,25.5,0,0,1,52,8.61c-4.32-.24-8.78-.48-12.66,1.77s-6,6.48-7.9,10.18a25.3,25.3,0,0,1-3.91,6.31,25.22,25.22,0,0,1-6.3,3.91c-3.71,1.86-7.91,4-10.19,7.9S9,47,9.27,51.33Z"/><path class="cls-1" d="M140.21,108a9.75,9.75,0,0,1-1,4.67c-1.28,2.21-4.25,3.7-7.4,5.28a30,30,0,0,0-8,5.16c-2.26,2.26-3.73,5.2-5.16,8-1.58,3.15-3.07,6.12-5.28,7.4s-5.44,1.07-8.93.88a30.54,30.54,0,0,0-9.63.48c-3,.81-5.71,2.59-8.32,4.3-3,2-5.79,3.82-8.44,3.82s-5.47-1.86-8.44-3.82c-2.61-1.72-5.3-3.49-8.32-4.3a21.51,21.51,0,0,0-5.59-.63c-1.35,0-2.71.07-4,.15-3.49.18-6.79.37-8.94-.88s-3.7-4.25-5.28-7.4c-1.42-2.84-2.89-5.77-5.16-8s-5.19-3.74-8-5.16c-3.14-1.58-6.12-3.07-7.4-5.28a9.92,9.92,0,0,1-1-4.67H9.14a16.19,16.19,0,0,0,1.9,8c2.28,3.93,6.48,6,10.19,7.9a25.22,25.22,0,0,1,6.3,3.91,25.11,25.11,0,0,1,3.91,6.31c1.86,3.7,4,7.9,7.9,10.18s8.34,2,12.65,1.77a25.57,25.57,0,0,1,7.54.26,24.65,24.65,0,0,1,6.37,3.43c3.49,2.31,7.46,4.92,12.12,4.92s8.62-2.61,12.12-4.92c2.26-1.49,4.39-2.9,6.37-3.42a25.47,25.47,0,0,1,7.53-.27c4.31.23,8.77.48,12.65-1.77s6-6.48,7.9-10.18a25,25,0,0,1,3.91-6.3,25,25,0,0,1,6.31-3.92c3.7-1.86,7.9-4,10.18-7.9a16.1,16.1,0,0,0,1.91-8Z"/><path class="cls-1" d="M118.56,116.83c.23-.23.45-.46.67-.7s.51-.55.77-.83l.38-.42c.33-.37.65-.75,1-1.13l.12-.15a56.46,56.46,0,0,0,2-70l0-.06c-.35-.46-.7-.92-1.06-1.37l-.2-.25c-.31-.39-.63-.77-.95-1.15l-.31-.36-.87-1-.41-.45-.8-.85-.51-.52-.72-.71-.62-.6-.53-.5a56.78,56.78,0,0,0-4.87-4h0c-.45-.34-.9-.66-1.36-1l-.08-.05c-.45-.31-.91-.62-1.38-.92l0,0h0a56.43,56.43,0,0,0-61.27,0l0,0c-.51.33-1,.66-1.5,1l-.17.12-1.35,1-.28.21L42.87,33l-.4.32-1,.86-.52.45c-.3.25-.59.51-.87.77s-.43.39-.64.59-.48.44-.71.67L38,37.4l-.56.57c-.29.29-.57.59-.84.89s-.29.3-.43.46l-.93,1-.29.34c-.34.4-.68.8-1,1.22,0,.07-.11.13-.17.2-.36.46-.72.92-1.07,1.39l-.06.09A56.44,56.44,0,0,0,30.44,108h0l1,1.44h0a57.93,57.93,0,0,0,5.05,6.29l.48.52.61.62.7.72.52.5.86.81.43.39c.33.31.67.61,1,.9l.34.29,1.19,1,.2.16a56.45,56.45,0,0,0,74-3.12l.24-.23,1-1Zm-67.64,2.46-.09-.06a53.31,53.31,0,0,1-4.4-3.22l-.07-.06A50.06,50.06,0,0,1,38.63,108h0a49.8,49.8,0,0,1-3.39-56.38l.69-1.12c.06-.08.11-.17.16-.25.23-.36.47-.71.71-1.06.06-.09.13-.18.19-.28.24-.33.47-.67.72-1,.07-.1.15-.2.22-.31l.72-.93.27-.35.71-.87.32-.38.69-.8.37-.41.68-.74c.14-.15.28-.3.43-.44s.43-.45.65-.67l.49-.48.63-.6.55-.51.6-.54.61-.53.57-.48.68-.55.54-.42.74-.57.5-.37.81-.58.47-.32.87-.58.44-.28c.3-.2.62-.39.93-.58A49.82,49.82,0,0,1,108.68,38h0a51.34,51.34,0,0,1,6.13,5.66h0c.62.67,1.22,1.37,1.81,2.07l0,.07a52.2,52.2,0,0,1,3.24,4.42l0,.06a49.75,49.75,0,0,1-2.89,58.2c-.31.39-.63.77-1,1.15s-.58.68-.88,1l-.94,1c-.33.35-.66.7-1,1l-.92.89-1.14,1-.89.77c-.42.36-.84.71-1.27,1.05a49.75,49.75,0,0,1-58.14,2.86Z"/><path class="cls-1" d="M52.41,146.08v-6.69l-.78,0c-3.49.2-6.79.38-8.94-.87s-3.7-4.25-5.28-7.4c-1.42-2.84-2.89-5.77-5.16-8s-5.19-3.74-8-5.16c-3.15-1.58-6.12-3.07-7.4-5.28s-1.07-5.45-.87-8.94c.17-3.19.36-6.49-.49-9.63a29.47,29.47,0,0,0-4.3-8.31c-2-3-3.82-5.79-3.82-8.44s1.86-5.47,3.82-8.45a29.33,29.33,0,0,0,4.3-8.31A30.59,30.59,0,0,0,16,51c-.19-3.48-.37-6.78.87-8.93s4.26-3.7,7.4-5.28c2.84-1.42,5.77-2.89,8-5.16s3.74-5.19,5.16-8c1.58-3.15,3.08-6.12,5.28-7.4s5.45-1.07,8.94-.87l.78,0V8.63l-.42,0c-4.31-.23-8.77-.48-12.65,1.77s-6,6.48-7.9,10.18a25.11,25.11,0,0,1-3.91,6.31,25,25,0,0,1-6.3,3.91c-3.71,1.86-7.91,4-10.19,7.9S9,47,9.28,51.33A25.88,25.88,0,0,1,9,58.87a24.61,24.61,0,0,1-3.43,6.36C3.28,68.73.66,72.7.66,77.36S3.28,86,5.58,89.48A24.61,24.61,0,0,1,9,95.84a25.87,25.87,0,0,1,.27,7.54C9,107.69,8.79,112.16,11,116s6.48,6,10.18,7.9a25.11,25.11,0,0,1,6.31,3.91,25.11,25.11,0,0,1,3.91,6.31c1.86,3.7,4,7.9,7.9,10.18s8.34,2,12.65,1.77Z"/><path class="cls-1" d="M108.68,15.16a9.92,9.92,0,0,1,4.67,1c2.2,1.28,3.69,4.25,5.27,7.4,1.43,2.84,2.9,5.77,5.16,8s5.2,3.74,8,5.16c3.15,1.58,6.13,3.07,7.4,5.28s1.07,5.45.88,8.94a30.55,30.55,0,0,0,.48,9.63c.81,3,2.59,5.71,4.3,8.31,2,3,3.82,5.79,3.82,8.45s-1.85,5.46-3.82,8.44c-1.71,2.6-3.49,5.3-4.3,8.31a21.51,21.51,0,0,0-.63,5.59c0,1.35.07,2.71.15,4,.18,3.49.37,6.78-.88,8.93s-4.25,3.7-7.4,5.28c-2.83,1.42-5.77,2.9-8,5.16a30.27,30.27,0,0,0-5.16,8c-1.58,3.15-3.07,6.12-5.28,7.4a9.73,9.73,0,0,1-4.66,1v6.69a16.08,16.08,0,0,0,8-1.91c3.93-2.28,6-6.48,7.9-10.18a25,25,0,0,1,3.91-6.3,25,25,0,0,1,6.31-3.92c3.71-1.86,7.91-4,10.18-7.9s2-8.34,1.77-12.65a25.12,25.12,0,0,1,.27-7.53,24.43,24.43,0,0,1,3.42-6.37c2.31-3.5,4.92-7.47,4.92-12.12s-2.61-8.62-4.92-12.12A24.59,24.59,0,0,1,147,58.87a25.54,25.54,0,0,1-.27-7.54c.23-4.31.48-8.77-1.76-12.65s-6.48-6-10.19-7.9a25,25,0,0,1-6.3-3.91,24.93,24.93,0,0,1-3.91-6.31c-1.86-3.7-4-7.9-7.9-10.18a16,16,0,0,0-8-1.9Z"/><path class="cls-1" d="M61,105.21a4,4,0,0,1-3.95-4.69L60,83.69,47.75,71.78A4,4,0,0,1,50,64.93l16.89-2.45,7.56-15.3a4,4,0,0,1,7.2,0l7.55,15.3,16.89,2.45a4,4,0,0,1,2.23,6.85L96.06,83.69,99,100.52a4,4,0,0,1-5.83,4.23L78,96.81l-15.11,7.94A4,4,0,0,1,61,105.21ZM78,88.26a4,4,0,0,1,1.87.46l9.77,5.14L87.79,83A4,4,0,0,1,89,79.42l7.91-7.71L85.93,70.12a4,4,0,0,1-3-2.19L78,58l-4.89,9.91a4,4,0,0,1-3,2.19L59.18,71.71l7.91,7.71A4,4,0,0,1,68.24,83L66.37,93.86l9.78-5.14A4,4,0,0,1,78,88.26Z"/></g></g></svg>