<svg xmlns="http://www.w3.org/2000/svg" viewBox="0 0 228.17 185.91"><defs><style>.cls-1{fill:#fff;}</style></defs><g id="Слой_2" data-name="Слой 2"><g id="Слой_1-2" data-name="Слой 1"><path class="cls-1" d="M13.58,65.8H51.37L44.52,8.08H20.43L13.58,65.8Zm42.16,8.09H9.23a4,4,0,0,1-4-4.35l7.45-65.8a4,4,0,0,1,4-3.74H48.27a4.06,4.06,0,0,1,4,3.74l7.41,65.37a3.51,3.51,0,0,1,.07.74,4,4,0,0,1-4,4Z"/><path class="cls-1" d="M49.59,25.8h-22a4,4,0,0,1,0-8.09h22a4,4,0,0,1,0,8.09Z"/><path class="cls-1" d="M8.08,177.83h212V71C212,57.43,202.52,49.05,186.7,49.05a45.07,45.07,0,0,0-39.13,22.83,4,4,0,0,1-7,0A45.05,45.05,0,0,0,101.4,49.05c-16.17,0-25.92,8.75-33.9,22.83A4.06,4.06,0,0,1,64,73.93H8.08v103.9Zm216,8.08H4a4,4,0,0,1-4-4v-112a4,4,0,0,1,4-4.06H61.69C71.36,50.43,83.12,41,101.4,41a53.16,53.16,0,0,1,42.65,21.51A53.18,53.18,0,0,1,186.7,41c19.08,0,31.53,10.31,40.93,26.93a3.86,3.86,0,0,1,.54,2v112a4,4,0,0,1-4,4Z"/><path class="cls-1" d="M100.26,122.81a9.32,9.32,0,1,0,9.31,9.33,9.33,9.33,0,0,0-9.31-9.33Zm0,26.72a17.4,17.4,0,1,1,17.4-17.39,17.42,17.42,0,0,1-17.4,17.39Z"/><path class="cls-1" d="M144,122.81a9.32,9.32,0,1,0,9.31,9.33,9.33,9.33,0,0,0-9.31-9.33Zm0,26.72a17.4,17.4,0,1,1,17.39-17.39A17.42,17.42,0,0,1,144,149.53Z"/><path class="cls-1" d="M187.78,122.81a9.32,9.32,0,1,0,9.31,9.33,9.34,9.34,0,0,0-9.31-9.33Zm0,26.72a17.4,17.4,0,1,1,17.41-17.39,17.41,17.41,0,0,1-17.41,17.39Z"/><path class="cls-1" d="M8.08,141.45H55.91V122.81H8.08v18.64ZM60,149.53H4a4,4,0,0,1-4-4V118.77a4,4,0,0,1,4-4H60a4.06,4.06,0,0,1,4.06,4v26.72a4,4,0,0,1-4.06,4Z"/><path class="cls-1" d="M32,149.53a4,4,0,0,1-4-4V118.77a4,4,0,0,1,8.08,0v26.72a4,4,0,0,1-4,4Z"/></g></g></svg>