<svg xmlns="http://www.w3.org/2000/svg" viewBox="0 0 193.56 187.01"><defs><style>.cls-1{fill:#fff;}</style></defs><g id="Слой_2" data-name="Слой 2"><g id="Слой_1-2" data-name="Слой 1"><path class="cls-1" d="M64.63,114.93A15.45,15.45,0,1,1,80.08,99.48,15.47,15.47,0,0,1,64.63,114.93Zm0-23a7.52,7.52,0,1,0,7.52,7.52A7.54,7.54,0,0,0,64.63,92Z"/><path class="cls-1" d="M88.58,26.67A11.22,11.22,0,1,1,99.79,15.45,11.23,11.23,0,0,1,88.58,26.67Zm0-14.5a3.28,3.28,0,1,0,3.28,3.28A3.29,3.29,0,0,0,88.58,12.17Z"/><path class="cls-1" d="M76.29,80a4,4,0,0,1-1.78-.42,22.08,22.08,0,0,0-19.66-.14,3.93,3.93,0,0,1-4.38-.63,4,4,0,0,1-1-4.34L68.08,25a3.94,3.94,0,0,1,7-.77,15.82,15.82,0,0,0,13.29,7.23,16.13,16.13,0,0,0,2.7-.23,3.93,3.93,0,0,1,3.71,1.39,4,4,0,0,1,.65,3.92L80,77.48a4,4,0,0,1-2.26,2.3A3.89,3.89,0,0,1,76.29,80ZM64.55,69.31a29.81,29.81,0,0,1,9.5,1.53L86,39.23a23.59,23.59,0,0,1-12.78-5.39L59.68,69.7A30.28,30.28,0,0,1,64.55,69.31Z"/><path class="cls-1" d="M98.49,157.27a4,4,0,0,1-3.94-3.57l-3.91-38.91a30.28,30.28,0,0,1-26,14.87,4,4,0,0,1,0-7.94,22.3,22.3,0,0,0,21.45-16.31,4,4,0,0,1,3.82-2.92h3.89a4,4,0,0,1,3.94,3.57l4.71,46.84a4,4,0,0,1-3.55,4.35Z"/><path class="cls-1" d="M30.77,157.27l-.4,0a4,4,0,0,1-3.55-4.35l4.71-46.84a4,4,0,0,1,3.95-3.57h3.88a4,4,0,0,1,3.82,2.92,22.3,22.3,0,0,0,21.45,16.31,4,4,0,0,1,0,7.94,30.29,30.29,0,0,1-26-14.87L34.71,153.7A4,4,0,0,1,30.77,157.27Z"/><path class="cls-1" d="M125.3,187H4a4,4,0,0,1-4-4v-13a20.78,20.78,0,0,1,20.75-20.75h87.76a20.78,20.78,0,0,1,20.75,20.75v13A4,4,0,0,1,125.3,187ZM7.93,179.08h113.4v-9a12.83,12.83,0,0,0-12.82-12.81H20.75A12.83,12.83,0,0,0,7.93,170.08Z"/><path class="cls-1" d="M168.14,42.12A16.2,16.2,0,0,1,152,25.93v0H107.43a4,4,0,0,1-3.75-5.26,16.05,16.05,0,0,0-2.05-14.4A4,4,0,0,1,104.87,0h58.71a20.78,20.78,0,0,1,20.75,20.75v5.18A16.2,16.2,0,0,1,168.14,42.12ZM155.92,18a4,4,0,0,1,2.81,1.16,4,4,0,0,1,1.16,2.8v4a8.26,8.26,0,1,0,16.51,0V20.75A12.83,12.83,0,0,0,163.58,7.93H111.27A23.71,23.71,0,0,1,112.34,18Z"/><path class="cls-1" d="M189.59,68.33a4,4,0,0,1-4-4V54.94a12.83,12.83,0,0,0-12.82-12.82h-9.33a12.83,12.83,0,0,0-12.82,12.82v9.42a4,4,0,1,1-7.93,0V54.94a20.78,20.78,0,0,1,20.75-20.75h9.33a20.78,20.78,0,0,1,20.75,20.75v9.42A4,4,0,0,1,189.59,68.33Z"/><path class="cls-1" d="M168.14,58.32a4,4,0,0,1-4-4V38.15a4,4,0,0,1,7.93,0v16.2A4,4,0,0,1,168.14,58.32Z"/></g></g></svg>