<svg xmlns="http://www.w3.org/2000/svg" xmlns:xlink="http://www.w3.org/1999/xlink" viewBox="0 0 169.87 141.06"><defs><style>.cls-1{fill:none;}.cls-2{fill:#fff;}.cls-3{clip-path:url(#clip-path);}</style><clipPath id="clip-path" transform="translate(0 -2.73)"><path class="cls-1" d="M93.37,56.14C102.14,58.74,103,73,103,73c5.5,6.48,6.53,17.51,5.57,28.48-1.34,15.34-12,19.15-21,26.68S200,149.45,200,149.45L196.68,0,102.87,7.08V44.82Z"/></clipPath></defs><g id="Слой_2" data-name="Слой 2"><g id="Слой_1-2" data-name="Слой 1"><path class="cls-2" d="M48.84,143.78a57.48,57.48,0,0,1-29.34-7.54A44.33,44.33,0,0,1,.31,113.6a4.35,4.35,0,0,1,1.87-5.38l21.87-12.6a4.36,4.36,0,0,1,6.33,2.44c2.62,8.18,8.49,12,18.46,12,5.44,0,9.63-1.23,12.45-3.67,2.66-2.3,4-5.44,4-9.58a12,12,0,0,0-4-9.53c-2.81-2.47-7-3.73-12.41-3.73H43.28a4.35,4.35,0,0,1-3.63-2L29.83,66.76A4.34,4.34,0,0,1,30,61.71L50.21,35.35h-42A4.36,4.36,0,0,1,3.89,31V7.08A4.36,4.36,0,0,1,8.25,2.73H89.81a4.35,4.35,0,0,1,4.35,4.35V28.21a4.38,4.38,0,0,1-.9,2.66L72.62,57.65A46.85,46.85,0,0,1,90.26,70.53c6.16,7.27,9.28,16.11,9.28,26.27,0,14.63-5.05,26.29-15,34.65C74.82,139.64,62.81,143.78,48.84,143.78Zm-38.91-30a34.76,34.76,0,0,0,14,14.9,49,49,0,0,0,25,6.36c12,0,21.87-3.36,30.1-10.28,8-6.73,11.89-15.89,11.89-28,0-8.16-2.36-14.91-7.22-20.64A39.53,39.53,0,0,0,64.29,63.9a4.35,4.35,0,0,1-2.22-6.83L85.45,26.73V11.44H12.6v15.2H59a4.35,4.35,0,0,1,3.45,7L38.81,64.54l6.81,10.29h3.22c7.61,0,13.72,2,18.17,5.91C71.62,84.8,74,90.21,74,96.8S71.61,109,67,113c-4.44,3.84-10.54,5.79-18.14,5.79-14,0-21.08-6.36-24.7-13.14Z" transform="translate(0 -2.73)"/><g class="cls-3"><path class="cls-2" d="M165.51,139.61H146.89a4.35,4.35,0,0,1-4.35-4.35V105.75l-13.06,20a4.37,4.37,0,0,1-3.65,2h-2.09a4.36,4.36,0,0,1-3.65-2L101.68,97.58A4.36,4.36,0,0,1,109,92.81L124.78,117l18.47-28.23a4.35,4.35,0,0,1,8,2.38V130.9h9.91V63.72H149.25L128.43,95.47a4.36,4.36,0,0,1-7.29,0L101.2,65.06H91.9a4.36,4.36,0,1,1,0-8.71h11.65a4.34,4.34,0,0,1,3.64,2l17.59,26.82L143.25,57a4.37,4.37,0,0,1,3.64-2h18.62a4.36,4.36,0,0,1,4.36,4.36v75.89A4.36,4.36,0,0,1,165.51,139.61Z" transform="translate(0 -2.73)"/></g></g></g></svg>