<svg xmlns="http://www.w3.org/2000/svg" viewBox="0 0 182.61 212.87"><defs><style>.cls-1{fill:#fff;}</style></defs><g id="Слой_2" data-name="Слой 2"><g id="Слой_1-2" data-name="Слой 1"><path class="cls-1" d="M104,127.39A63.7,63.7,0,1,1,167.72,63.7,63.76,63.76,0,0,1,104,127.39ZM104,7.86A55.84,55.84,0,1,0,159.86,63.7,55.9,55.9,0,0,0,104,7.86Z"/><path class="cls-1" d="M80,107.05a7.16,7.16,0,0,1-1.58-.18,7.47,7.47,0,0,1-5.68-6.19,13.21,13.21,0,0,0-.72-2.48,15.94,15.94,0,0,1-1-8.7c.59-3.49,0-5-.7-5.93a7.51,7.51,0,0,0-4.11.59,6.25,6.25,0,0,1-5.53,0c-3-1.42-5.62-5.11-6.7-9.61-1.47-6.12,1.7-9,4.25-11.22.57-.5,1.15-1,1.75-1.61h0c1.18-1.17,7.35-6.93,12.87-5.48a6.24,6.24,0,0,1,4.19,3.66,25.27,25.27,0,0,1,6.24-.1c3.41.35,5.92,1.56,7.48,3.62,1.91,2.53,1.81,5.5,1.47,7.84a10.6,10.6,0,0,1,5.6,1.8,5.71,5.71,0,0,1,2.26,5c-.28,3.65-3.79,6.52-5.61,7.53-.93.52-1.21.67-.9,2.29.94,5-1.54,8.43-4.17,12.11-.5.7-1,1.44-1.57,2.24C85.79,105.33,82.94,107.05,80,107.05ZM69.38,75.63a8.68,8.68,0,0,1,6.88,2.73c2.64,3.17,3.45,7.12,2.56,12.44a8.28,8.28,0,0,0,.65,4.78,23.41,23.41,0,0,1,1,3.32,5.26,5.26,0,0,0,.94-1.08c.58-.85,1.14-1.64,1.67-2.38,2.39-3.35,3.14-4.56,2.85-6.08-.88-4.63.61-8.13,4.44-10.42a7.2,7.2,0,0,1-5.16-2.48,5.57,5.57,0,0,1-1-4.44q0-.33.12-.69c.15-.88.47-2.72.22-3.19h0a4,4,0,0,0-2-.54,18.38,18.38,0,0,0-5,.16c-1.84.27-5.51.8-7.34-3.69a14.81,14.81,0,0,0-4.69,3.22h0c-.74.73-1.43,1.35-2,1.89-2.21,2-2.21,2-1.84,3.52a8.89,8.89,0,0,0,2,4A16.08,16.08,0,0,1,69.38,75.63ZM64.05,77ZM62.79,64.5Z"/><path class="cls-1" d="M133,105c-6.21,0-7.24-3.54-7.94-8.41a26.21,26.21,0,0,0-.78-3.35c-.69-2.5-1.41-5.09,0-7.48A5.78,5.78,0,0,1,128,83.1c.45-.11.92-.21,1.4-.31,3.14-.67,4.59-1.14,5.35-2.86,2.35-5.31,10-7.34,13.88-6.06a5.11,5.11,0,0,1,3.22,2.9c2.84-2.12,7-4.36,11.92-1.83a3.93,3.93,0,1,1-3.6,7c-1.14-.59-2.14-.13-5.06,2.3l-.39.33c-2.82,2.33-5.72,2-7.5.89a6.38,6.38,0,0,1-2.78-3.86,4.3,4.3,0,0,0-2.51,1.53c-2.32,5.24-7.14,6.55-10.32,7.24.07.28.15.55.21.8a32.07,32.07,0,0,1,1,4.33c.07.49.17,1.16.26,1.7.34,0,.79-.05,1.4-.12a7.13,7.13,0,0,0,1.11-.2l0,0c1.27-1.48,2.81-2.5,6.19-2.64h.38c4.64-.19,9.43-.38,12.11,5a3.93,3.93,0,0,1-7,3.49c-.34-.7-.41-.84-4.75-.67l-.38,0c-.31,0-.54,0-.69,0-1.23,1.38-2.77,2.38-6,2.75A21.28,21.28,0,0,1,133,105Z"/><path class="cls-1" d="M152.9,68.25a14.4,14.4,0,0,1-9.83-4.68c-2.32-.71-10.71-.37-15.81-.17-10.94.45-15.66.47-18.33-1.11-5.31-3.14-4.68-8.63-4.34-11.58,0-.15,0-.3,0-.44A41.77,41.77,0,0,0,92,49.15c-1.47.1-1.69.3-2.06.64-1.26,1.13-2.89,2.3-6.37,1.8a7.57,7.57,0,0,1-5.48-3.07c-1.75-2.69-.87-5.76,0-8.74,1.14-4,5.56-6.08,9.88-7.5A4.65,4.65,0,0,1,85.35,28c.05-1.79.92-4.36,7.35-8.38a41.53,41.53,0,0,1,11-5c5.5-1.38,11.86-.3,17.47.65,2.39.41,4.64.79,6.61,1l1.32.11c1,.09,2.06.18,2.68.19l.38-.49.74-1a10.25,10.25,0,0,1,4.66-3.59,3.93,3.93,0,0,1,2.72,7.37c-.23.08-.52.19-1.18,1l-.66.87c-2.88,3.84-4.58,3.88-10,3.41l-1.31-.11c-2.3-.2-4.71-.61-7.26-1-5.09-.86-10.35-1.75-14.26-.78A35.44,35.44,0,0,0,95.72,27c2.37,1.3,4.68,3.23,4.8,5.87a4.92,4.92,0,0,1-3.33,4.79c-.85.34-1.93.64-3.29,1-1.81.52-7.29,2.07-8.3,3.38-.12.4-.27.92-.39,1.42a10.17,10.17,0,0,1,6.26-2.19c3-.2,15-.24,19.19,3.39a5.31,5.31,0,0,1,1.91,3.69,18,18,0,0,1-.17,3.21c-.34,2.93-.16,3.48.42,3.86,1.81.59,9.21.29,14.12.09,13.8-.55,19.25-.48,21.78,2.56a7.65,7.65,0,0,0,3.5,2.17c.79-4.23,2.91-5.57,5-6.56a6.28,6.28,0,0,0,1.11-.61,5.14,5.14,0,0,0,1.33-1.31A3.93,3.93,0,1,1,166.31,56a12.57,12.57,0,0,1-3.24,3.38,13.35,13.35,0,0,1-2.48,1.44l-.49.23a5.64,5.64,0,0,0-.24,1.19,6.57,6.57,0,0,1-4.7,5.69A8.06,8.06,0,0,1,152.9,68.25ZM85.55,42.13Z"/><path class="cls-1" d="M121.82,187.22H50.9a3.93,3.93,0,1,1,0-7.85h69.36l52.61-49.54c-6.67-5.18-13-4.89-20.49.75-11.2,8.42-27.83,21-28,21.11a3.93,3.93,0,0,1-4.74-6.26c.17-.13,16.81-12.71,28-21.13,11.79-8.86,23.17-8,33.79,2.67a3.94,3.94,0,0,1-.08,5.64l-56.87,53.55A4,4,0,0,1,121.82,187.22Z"/><path class="cls-1" d="M78.25,164.57a3.93,3.93,0,1,1,0-7.86h40.28q-.84-5.58-4.2-8.14a10.77,10.77,0,0,0-6.2-2H87a3.9,3.9,0,0,1-2.19-.67c-9.24-6.2-14.68-7.3-25.35-7.3-12.71,0-22.74,6.37-35.78,22.73a3.93,3.93,0,0,1-6.14-4.9c14.54-18.25,26.69-25.69,41.92-25.69,11.3,0,18.28,1.17,28.72,8h19.95a18.63,18.63,0,0,1,10.94,3.62c3.46,2.61,7.58,7.92,7.58,18.33a3.94,3.94,0,0,1-3.92,3.93Z"/><path class="cls-1" d="M48.46,212.87a3.93,3.93,0,0,1-2.78-6.71l7.3-7.3-42-42a3.93,3.93,0,0,1,5.56-5.56l44.76,44.77a3.92,3.92,0,0,1,0,5.55L51.24,211.72A4,4,0,0,1,48.46,212.87Z"/><path class="cls-1" d="M48.46,212.87a3.93,3.93,0,0,1-2.78-6.71l7.3-7.3L13.77,159.65l-7.06,7.07a3.93,3.93,0,0,1-5.56-5.56L11,151.32a3.94,3.94,0,0,1,5.56,0l44.76,44.77a3.92,3.92,0,0,1,0,5.55L51.24,211.72A4,4,0,0,1,48.46,212.87Z"/></g></g></svg>